<svg width="246" height="30" viewBox="0 0 246 30" fill="none" xmlns="http://www.w3.org/2000/svg">
<path d="M115.14 16.5619C115.793 15.8692 116.57 15.3195 117.425 14.9443C118.281 14.5691 119.198 14.3759 120.124 14.3757C124.096 14.3757 126.943 17.464 127.055 21.8845V28.8669H127.089C127.089 29.0372 127.153 29.2005 127.267 29.3209C127.381 29.4413 127.536 29.5089 127.697 29.5089H131.718C131.879 29.5089 132.034 29.4413 132.148 29.3209C132.262 29.2005 132.326 29.0372 132.326 28.8669V1.02413C132.326 0.853851 132.262 0.690542 132.148 0.570133C132.034 0.449724 131.879 0.38208 131.718 0.38208H127.682C127.521 0.38208 127.366 0.449724 127.252 0.570133C127.138 0.690542 127.074 0.853851 127.074 1.02413V11.8781H113.053V1.02413C113.053 0.853851 112.989 0.690542 112.875 0.570133C112.761 0.449724 112.606 0.38208 112.445 0.38208H108.427C108.266 0.38208 108.111 0.449724 107.997 0.570133C107.883 0.690542 107.819 0.853851 107.819 1.02413V28.8669C107.819 29.0372 107.883 29.2005 107.997 29.3209C108.111 29.4413 108.266 29.5089 108.427 29.5089H112.445C112.6 29.5092 112.75 29.4469 112.863 29.3347C112.976 29.2225 113.044 29.0689 113.053 28.9054V21.7979C113.054 20.8226 113.239 19.8572 113.597 18.9582C113.955 18.0592 114.48 17.2445 115.14 16.5619Z" fill="#FF7070"/>
<path d="M56.5152 29.4061L50.2622 19.817H44.1218V29.1813C44.121 29.2353 44.1102 29.2886 44.0899 29.3381C44.0696 29.3877 44.0402 29.4325 44.0035 29.47C43.9668 29.5076 43.9234 29.5372 43.8759 29.557C43.8283 29.5769 43.7776 29.5867 43.7264 29.5858H39.2831C39.2319 29.5867 39.1812 29.5769 39.1336 29.557C39.0861 29.5372 39.0427 29.5076 39.006 29.47C38.9693 29.4325 38.9399 29.3877 38.9196 29.3381C38.8993 29.2886 38.8885 29.2353 38.8877 29.1813V0.796149C38.8885 0.742185 38.8993 0.688913 38.9196 0.639378C38.9399 0.589843 38.9693 0.545014 39.006 0.507452C39.0427 0.46989 39.0861 0.440335 39.1336 0.420466C39.1812 0.400597 39.2319 0.390803 39.2831 0.391653H51.8255C55.3443 0.391653 58.1819 1.39326 60.0371 3.2809C61.579 4.86677 62.3941 7.13323 62.3941 9.78813C62.3941 15.3098 59.1612 17.6822 56.4513 18.7159L55.6667 19.0144L62.2785 28.9438C62.3209 29.0053 62.3459 29.0781 62.3509 29.1539C62.3558 29.2297 62.3404 29.3055 62.3065 29.3725C62.2725 29.4395 62.2213 29.4951 62.1588 29.5328C62.0963 29.5705 62.025 29.5889 61.9531 29.5858H56.8437C56.7791 29.5867 56.7154 29.5707 56.6581 29.5394C56.6008 29.508 56.5517 29.4622 56.5152 29.4061ZM44.1218 14.8186C44.1226 14.8726 44.1334 14.9258 44.1537 14.9754C44.174 15.0249 44.2034 15.0697 44.2401 15.1073C44.2768 15.1448 44.3202 15.1744 44.3677 15.1943C44.4153 15.2142 44.466 15.2239 44.5172 15.2231H51.3997C54.8425 15.2231 57.0657 13.2648 57.0657 10.2343C57.0657 6.99519 54.9003 5.11397 51.2872 5.11397H44.5172C44.466 5.11312 44.4153 5.1229 44.3677 5.14277C44.3202 5.16264 44.2768 5.1922 44.2401 5.22976C44.2034 5.26732 44.174 5.31215 44.1537 5.36169C44.1334 5.41122 44.1226 5.46449 44.1218 5.51846V14.8186Z" fill="#FF7070"/>
<path d="M86.3625 30.0032C77.9562 30.0032 71.6546 23.3579 71.8827 14.6228C72.1108 5.88764 79.924 -0.677368 88.4397 0.0577842C91.8764 0.35313 94.6075 1.5313 97.0618 3.75923C97.1008 3.79485 97.1327 3.83821 97.1558 3.88685C97.1788 3.9355 97.1926 3.98846 97.1963 4.04271C97.1999 4.09697 97.1934 4.15146 97.1772 4.20307C97.1609 4.25468 97.1351 4.30239 97.1014 4.34349L94.3033 7.65328C94.2344 7.7307 94.1403 7.77771 94.0398 7.78485C93.9394 7.792 93.8402 7.75875 93.762 7.6918C91.3989 5.69822 89.1605 4.80257 86.5753 4.80257C81.4051 4.80257 77.3693 9.23917 77.3693 14.9053V15.39C77.3684 17.9824 78.3416 20.4693 80.0754 22.3054C81.8092 24.1415 84.162 25.1769 86.6179 25.1845C89.8326 25.1492 91.9402 23.9518 94.0266 22.1316C94.0997 22.0623 94.1945 22.024 94.2927 22.024C94.3909 22.024 94.4857 22.0623 94.5588 22.1316L97.2778 24.9534C97.3148 24.9917 97.3443 25.0374 97.3644 25.0878C97.3845 25.1383 97.3948 25.1924 97.3948 25.2472C97.3948 25.3019 97.3845 25.356 97.3644 25.4065C97.3443 25.4569 97.3148 25.5026 97.2778 25.5409C94.1482 28.6902 90.9457 29.9871 86.3685 29.9871" fill="#FF7070"/>
<path d="M171.246 29.3162L164.586 9.48312C164.556 9.40433 164.505 9.33668 164.439 9.28898C164.373 9.24129 164.295 9.21576 164.214 9.21576C164.134 9.21576 164.056 9.24129 163.99 9.28898C163.924 9.33668 163.873 9.40433 163.843 9.48312L157.183 29.3162C157.155 29.3959 157.104 29.4646 157.038 29.5128C156.971 29.5611 156.892 29.5866 156.812 29.5858H152.651C152.57 29.5873 152.491 29.5617 152.424 29.5127C152.357 29.4637 152.307 29.3939 152.28 29.313L142.91 0.921329C142.89 0.859856 142.885 0.794328 142.895 0.730278C142.904 0.666228 142.928 0.605525 142.965 0.553286C143.001 0.501046 143.049 0.458801 143.104 0.430108C143.159 0.401416 143.22 0.387122 143.281 0.388422H148.016C148.1 0.387168 148.181 0.414298 148.248 0.465779C148.316 0.51726 148.366 0.590333 148.39 0.674131L154.516 21.2199C154.542 21.3022 154.593 21.3737 154.66 21.4243C154.727 21.4749 154.807 21.5021 154.89 21.5021C154.972 21.5021 155.053 21.4749 155.12 21.4243C155.187 21.3737 155.237 21.3022 155.264 21.2199L161.897 0.56177C161.923 0.479969 161.973 0.408961 162.04 0.358825C162.106 0.30869 162.186 0.281976 162.268 0.282478H166.331C166.413 0.281976 166.493 0.30869 166.56 0.358825C166.626 0.408961 166.676 0.479969 166.702 0.56177L173.338 21.2199C173.365 21.3022 173.416 21.3737 173.483 21.4243C173.55 21.4749 173.63 21.5021 173.713 21.5021C173.795 21.5021 173.875 21.4749 173.942 21.4243C174.01 21.3737 174.06 21.3022 174.087 21.2199L180.209 0.674131C180.234 0.590333 180.284 0.51726 180.351 0.465779C180.418 0.414298 180.5 0.387168 180.583 0.388422H185.145C185.206 0.387122 185.267 0.401416 185.322 0.430108C185.377 0.458801 185.425 0.501046 185.461 0.553286C185.498 0.605525 185.522 0.666228 185.531 0.730278C185.541 0.794328 185.535 0.859856 185.516 0.921329L176.146 29.313C176.118 29.3936 176.068 29.4632 176.001 29.5121C175.935 29.561 175.856 29.5868 175.775 29.5858H171.617C171.536 29.5866 171.458 29.5611 171.391 29.5128C171.325 29.4646 171.274 29.3959 171.246 29.3162Z" fill="#FF7070"/>
<path d="M212.158 29.3355L209.664 23.0466C209.633 22.9717 209.582 22.9081 209.517 22.8636C209.452 22.8191 209.376 22.7956 209.299 22.7962H196.489C196.412 22.7959 196.337 22.8194 196.272 22.8639C196.208 22.9085 196.158 22.972 196.127 23.0466L193.606 29.3355C193.576 29.4109 193.525 29.4749 193.46 29.5196C193.395 29.5642 193.318 29.5873 193.241 29.5859H188.898C188.834 29.5875 188.771 29.5722 188.715 29.5415C188.658 29.5108 188.61 29.4655 188.574 29.41C188.538 29.3544 188.516 29.2902 188.51 29.2233C188.504 29.1565 188.514 29.0891 188.539 29.0273L200.297 0.661356C200.328 0.587957 200.379 0.525795 200.443 0.482463C200.508 0.439131 200.582 0.416516 200.659 0.417382H205.263C205.34 0.416516 205.414 0.439131 205.479 0.482463C205.543 0.525795 205.594 0.587957 205.625 0.661356L217.377 29.0273C217.402 29.0893 217.412 29.157 217.406 29.2242C217.399 29.2913 217.377 29.3557 217.341 29.4113C217.305 29.467 217.256 29.5122 217.199 29.5427C217.142 29.5732 217.079 29.5881 217.015 29.5859H212.505C212.427 29.5873 212.351 29.5642 212.286 29.5196C212.221 29.4749 212.17 29.4109 212.14 29.3355H212.158ZM198.578 18.2408H207.173C207.237 18.2424 207.3 18.2274 207.356 18.1971C207.413 18.1667 207.461 18.122 207.498 18.067C207.534 18.0119 207.556 17.9482 207.563 17.8816C207.571 17.815 207.562 17.7476 207.538 17.6854L203.247 6.91176C203.215 6.83781 203.164 6.77503 203.1 6.73098C203.035 6.68694 202.96 6.66352 202.883 6.66352C202.807 6.66352 202.731 6.68694 202.667 6.73098C202.603 6.77503 202.551 6.83781 202.52 6.91176L198.223 17.6854C198.198 17.7473 198.189 17.8147 198.195 17.8813C198.202 17.948 198.224 18.0119 198.26 18.0671C198.296 18.1223 198.345 18.1672 198.401 18.1975C198.458 18.2278 198.521 18.2427 198.585 18.2408" fill="#FF7070"/>
<path d="M24.1281 29.3355L21.6312 23.0465C21.6008 22.9719 21.5503 22.9084 21.4859 22.8639C21.4216 22.8194 21.3462 22.7958 21.2693 22.7962H8.45925C8.38188 22.7956 8.30605 22.819 8.24118 22.8636C8.17631 22.9081 8.12523 22.9717 8.09428 23.0465L5.59736 29.3355C5.56761 29.4106 5.51724 29.4746 5.45274 29.5192C5.38824 29.5638 5.31256 29.587 5.23544 29.5859H0.892431C0.828564 29.588 0.765204 29.5732 0.708214 29.5427C0.651224 29.5122 0.602439 29.467 0.566366 29.4113C0.530294 29.3557 0.5081 29.2913 0.501833 29.2241C0.495566 29.157 0.50543 29.0893 0.530512 29.0273L12.2822 0.661339C12.3138 0.588188 12.3648 0.526249 12.429 0.482965C12.4932 0.439682 12.5679 0.416904 12.6441 0.417365H17.2517C17.3275 0.417123 17.4017 0.440033 17.4653 0.483328C17.529 0.526622 17.5795 0.588443 17.6106 0.661339L29.3744 29.0273C29.3987 29.0894 29.4079 29.1568 29.4013 29.2236C29.3946 29.2904 29.3724 29.3544 29.3365 29.4098C29.3006 29.4652 29.2521 29.5103 29.1956 29.5411C29.139 29.5718 29.0761 29.5872 29.0125 29.5859H24.4901C24.413 29.5866 24.3375 29.5632 24.2731 29.5186C24.2087 29.4741 24.1582 29.4103 24.1281 29.3355ZM10.5669 18.2408H19.1617C19.2251 18.2427 19.2881 18.2278 19.3447 18.1975C19.4013 18.1671 19.4499 18.1223 19.4858 18.0671C19.5218 18.0118 19.5442 17.948 19.5507 17.8813C19.5573 17.8146 19.548 17.7473 19.5236 17.6854L15.2262 6.91174C15.1953 6.83759 15.1446 6.77453 15.0804 6.73026C15.0161 6.68599 14.941 6.66243 14.8643 6.66243C14.7875 6.66243 14.7125 6.68599 14.6482 6.73026C14.5839 6.77453 14.5333 6.83759 14.5024 6.91174L10.2141 17.6854C10.1897 17.7473 10.1803 17.8146 10.1869 17.8813C10.1935 17.948 10.2158 18.0118 10.2518 18.0671C10.2878 18.1223 10.3363 18.1671 10.393 18.1975C10.4496 18.2278 10.5125 18.2427 10.576 18.2408" fill="#FF7070"/>
<path d="M229.704 29.1814V18.0224L219.199 1.00804C219.161 0.946247 219.14 0.874838 219.138 0.801458C219.136 0.728078 219.153 0.65549 219.187 0.591489C219.221 0.527488 219.271 0.47448 219.332 0.438147C219.392 0.401813 219.461 0.383526 219.53 0.385243H224.676C224.745 0.384579 224.812 0.402554 224.871 0.437431C224.931 0.472309 224.981 0.5229 225.017 0.584278L232.012 12.6934C232.048 12.7537 232.098 12.8034 232.158 12.8379C232.217 12.8723 232.283 12.8903 232.351 12.8903C232.419 12.8903 232.485 12.8723 232.545 12.8379C232.604 12.8034 232.654 12.7537 232.69 12.6934L239.834 0.587492C239.87 0.527387 239.92 0.477899 239.979 0.443653C240.038 0.409406 240.104 0.391513 240.172 0.39166H245.102C245.172 0.389341 245.241 0.40719 245.302 0.44328C245.362 0.479371 245.413 0.532337 245.447 0.596446C245.482 0.660556 245.499 0.733382 245.497 0.807052C245.495 0.880722 245.474 0.952433 245.436 1.01445L234.938 17.8908V29.1814C234.937 29.2353 234.926 29.2886 234.906 29.3381C234.885 29.3877 234.856 29.4325 234.819 29.4701C234.783 29.5076 234.739 29.5372 234.692 29.557C234.644 29.5769 234.593 29.5867 234.542 29.5859H230.102C230.051 29.5867 230 29.5769 229.953 29.557C229.905 29.5372 229.862 29.5076 229.825 29.4701C229.788 29.4325 229.759 29.3877 229.739 29.3381C229.718 29.2886 229.707 29.2353 229.707 29.1814" fill="#FF7070"/>
</svg>
